<svg width="28" height="25" viewBox="0 0 28 25" fill="none" xmlns="http://www.w3.org/2000/svg">
<g id="Capa 1">
<path id="Vector" d="M10.7283 13.6363C9.37981 13.6363 8.06159 13.2364 6.94035 12.4872C5.81911 11.7381 4.94521 10.6732 4.42916 9.42735C3.91311 8.1815 3.77809 6.81059 4.04117 5.488C4.30425 4.16541 4.95361 2.95053 5.90715 1.99699C6.86069 1.04346 8.07557 0.394092 9.39816 0.131012C10.7208 -0.132068 12.0917 0.00295421 13.3375 0.519004C14.5834 1.03505 15.6482 1.90895 16.3974 3.03019C17.1466 4.15143 17.5465 5.46965 17.5465 6.81816C17.5425 8.62522 16.8228 10.3571 15.5451 11.6349C14.2673 12.9127 12.5354 13.6323 10.7283 13.6363V13.6363ZM10.7283 1.51515C9.67948 1.51515 8.6542 1.82616 7.78212 2.40887C6.91004 2.99157 6.23034 3.81979 5.82897 4.78878C5.4276 5.75778 5.32258 6.82404 5.5272 7.85272C5.73182 8.88141 6.23688 9.82631 6.97852 10.568C7.72016 11.3096 8.66507 11.8147 9.69375 12.0193C10.7224 12.2239 11.7887 12.1189 12.7577 11.7175C13.7267 11.3161 14.5549 10.6364 15.1376 9.76435C15.7203 8.89228 16.0313 7.86699 16.0313 6.81816C16.0313 5.41171 15.4726 4.06287 14.4781 3.06836C13.4836 2.07386 12.1348 1.51515 10.7283 1.51515V1.51515Z" fill="white"/>
<path id="Vector_2" d="M16.0302 25H0L0.136363 24.1212C0.470296 21.4734 1.74526 19.0339 3.72854 17.2482C5.71182 15.4624 8.27114 14.4493 10.9393 14.394C12.3193 14.3819 13.6883 14.6392 14.9696 15.1515C15.065 15.1877 15.152 15.2427 15.2256 15.3132C15.2992 15.3838 15.3578 15.4685 15.3978 15.5623C15.4379 15.656 15.4586 15.7569 15.4588 15.8589C15.4589 15.9608 15.4385 16.0618 15.3987 16.1556C15.3589 16.2495 15.3006 16.3344 15.2272 16.4052C15.1538 16.4759 15.0669 16.5312 14.9717 16.5676C14.8764 16.604 14.7748 16.6208 14.6729 16.617C14.5711 16.6132 14.471 16.5889 14.3787 16.5455C13.2891 16.0897 12.1204 15.8529 10.9393 15.8485C8.79204 15.902 6.72578 16.6794 5.07566 18.0545C3.42554 19.4296 2.28833 21.3218 1.84848 23.4242H16.0757C16.2766 23.4242 16.4693 23.504 16.6114 23.6461C16.7535 23.7882 16.8333 23.9809 16.8333 24.1818C16.8333 24.3827 16.7535 24.5754 16.6114 24.7175C16.4693 24.8596 16.2766 24.9394 16.0757 24.9394L16.0302 25Z" fill="white"/>
<path id="Vector_3" d="M21.7115 12.8783C20.5415 12.8791 19.3967 13.2186 18.4153 13.8558C17.434 14.493 16.6581 15.4006 16.1813 16.4692C15.8276 17.2442 15.6467 18.0869 15.651 18.9388C15.651 20.1375 16.0064 21.3093 16.6723 22.3059C17.3383 23.3026 18.2848 24.0794 19.3923 24.5381C20.4997 24.9968 21.7183 25.1168 22.8939 24.883C24.0695 24.6491 25.1494 24.0719 25.997 23.2243C26.8446 22.3767 27.4218 21.2968 27.6557 20.1212C27.8895 18.9456 27.7695 17.727 27.3108 16.6196C26.8521 15.5121 26.0753 14.5656 25.0786 13.8997C24.082 13.2337 22.9102 12.8783 21.7115 12.8783ZM24.7418 19.757H22.5297V21.9691C22.5297 22.1861 22.4435 22.3942 22.2901 22.5477C22.1366 22.7011 21.9285 22.7873 21.7115 22.7873C21.4945 22.7873 21.2864 22.7011 21.133 22.5477C20.9796 22.3942 20.8934 22.1861 20.8934 21.9691V19.6964H18.6812C18.5738 19.6964 18.4674 19.6753 18.3681 19.6341C18.2689 19.593 18.1787 19.5328 18.1027 19.4568C18.0267 19.3808 17.9665 19.2906 17.9253 19.1913C17.8842 19.0921 17.8631 18.9857 17.8631 18.8782C17.8623 18.7322 17.9014 18.5887 17.9762 18.4632C18.051 18.3377 18.1585 18.235 18.2873 18.1661C18.4043 18.0905 18.5421 18.0534 18.6812 18.0601H20.8934V15.9086C20.8934 15.6916 20.9796 15.4835 21.133 15.33C21.2864 15.1766 21.4945 15.0904 21.7115 15.0904C21.9285 15.0904 22.1366 15.1766 22.2901 15.33C22.4435 15.4835 22.5297 15.6916 22.5297 15.9086V18.1813H24.7418C24.9588 18.1813 25.1669 18.2675 25.3204 18.4209C25.4738 18.5744 25.56 18.7825 25.56 18.9995C25.56 19.2164 25.4738 19.4246 25.3204 19.578C25.1669 19.7314 24.9588 19.8176 24.7418 19.8176V19.757Z" fill="white"/>
</g>
</svg>
