<svg width="91" height="51" viewBox="0 0 91 51" fill="none" xmlns="http://www.w3.org/2000/svg">
<rect width="91" height="51" rx="8" fill="#2A3647"/>
<path d="M23.3239 22.7102C23.2784 22.2519 23.0833 21.8958 22.7386 21.642C22.3939 21.3883 21.9261 21.2614 21.3352 21.2614C20.9337 21.2614 20.5947 21.3182 20.3182 21.4318C20.0417 21.5417 19.8295 21.6951 19.6818 21.892C19.5379 22.089 19.4659 22.3125 19.4659 22.5625C19.4583 22.7708 19.5019 22.9527 19.5966 23.108C19.6951 23.2633 19.8295 23.3977 20 23.5114C20.1705 23.6212 20.3674 23.7178 20.5909 23.8011C20.8144 23.8807 21.053 23.9489 21.3068 24.0057L22.3523 24.2557C22.8598 24.3693 23.3258 24.5208 23.75 24.7102C24.1742 24.8996 24.5417 25.1326 24.8523 25.4091C25.1629 25.6856 25.4034 26.0114 25.5739 26.3864C25.7481 26.7614 25.8371 27.1913 25.8409 27.6761C25.8371 28.3883 25.6553 29.0057 25.2955 29.5284C24.9394 30.0473 24.4242 30.4508 23.75 30.7386C23.0795 31.0227 22.2708 31.1648 21.3239 31.1648C20.3845 31.1648 19.5663 31.0208 18.8693 30.733C18.1761 30.4451 17.6345 30.0189 17.2443 29.4545C16.858 28.8864 16.6553 28.1837 16.6364 27.3466H19.017C19.0436 27.7367 19.1553 28.0625 19.3523 28.3239C19.553 28.5814 19.8201 28.7765 20.1534 28.9091C20.4905 29.0379 20.8712 29.1023 21.2955 29.1023C21.7121 29.1023 22.0739 29.0417 22.3807 28.9205C22.6913 28.7992 22.9318 28.6307 23.1023 28.4148C23.2727 28.1989 23.358 27.9508 23.358 27.6705C23.358 27.4091 23.2803 27.1894 23.125 27.0114C22.9735 26.8333 22.75 26.6818 22.4545 26.5568C22.1629 26.4318 21.8049 26.3182 21.3807 26.2159L20.1136 25.8977C19.1326 25.6591 18.358 25.286 17.7898 24.7784C17.2216 24.2708 16.9394 23.5871 16.9432 22.7273C16.9394 22.0227 17.1269 21.4072 17.5057 20.8807C17.8883 20.3542 18.4129 19.9432 19.0795 19.6477C19.7462 19.3523 20.5038 19.2045 21.3523 19.2045C22.2159 19.2045 22.9697 19.3523 23.6136 19.6477C24.2614 19.9432 24.7652 20.3542 25.125 20.8807C25.4848 21.4072 25.6705 22.017 25.6818 22.7102H23.3239ZM27.4503 31V22.2727H29.8707V31H27.4503ZM28.6662 21.1477C28.3063 21.1477 27.9976 21.0284 27.7401 20.7898C27.4863 20.5473 27.3594 20.2576 27.3594 19.9205C27.3594 19.5871 27.4863 19.3011 27.7401 19.0625C27.9976 18.8201 28.3063 18.6989 28.6662 18.6989C29.026 18.6989 29.3329 18.8201 29.5866 19.0625C29.8442 19.3011 29.973 19.5871 29.973 19.9205C29.973 20.2576 29.8442 20.5473 29.5866 20.7898C29.3329 21.0284 29.026 21.1477 28.6662 21.1477ZM35.7415 34.4545C34.9574 34.4545 34.285 34.3466 33.7244 34.1307C33.1676 33.9186 32.7244 33.6288 32.3949 33.2614C32.0653 32.8939 31.8513 32.4811 31.7528 32.0227L33.9915 31.7216C34.0597 31.8958 34.1676 32.0587 34.3153 32.2102C34.4631 32.3617 34.6581 32.483 34.9006 32.5739C35.1468 32.6686 35.446 32.7159 35.7983 32.7159C36.3248 32.7159 36.7585 32.5871 37.0994 32.3295C37.4441 32.0758 37.6165 31.6496 37.6165 31.0511V29.4545H37.5142C37.4081 29.697 37.2491 29.9261 37.0369 30.142C36.8248 30.358 36.5521 30.5341 36.2188 30.6705C35.8854 30.8068 35.4877 30.875 35.0256 30.875C34.3703 30.875 33.7737 30.7235 33.2358 30.4205C32.7017 30.1136 32.2756 29.6458 31.9574 29.017C31.643 28.3845 31.4858 27.5852 31.4858 26.6193C31.4858 25.6307 31.6468 24.8049 31.9688 24.142C32.2907 23.4792 32.7188 22.983 33.2528 22.6534C33.7907 22.3239 34.3797 22.1591 35.0199 22.1591C35.5085 22.1591 35.9176 22.2424 36.2472 22.4091C36.5767 22.572 36.8419 22.7765 37.0426 23.0227C37.2472 23.2652 37.4044 23.5038 37.5142 23.7386H37.6051V22.2727H40.0085V31.0852C40.0085 31.8277 39.8267 32.4489 39.4631 32.9489C39.0994 33.4489 38.5956 33.8239 37.9517 34.0739C37.3116 34.3277 36.5748 34.4545 35.7415 34.4545ZM35.7926 29.0568C36.1828 29.0568 36.5123 28.9602 36.7812 28.767C37.054 28.5701 37.2623 28.2898 37.4062 27.9261C37.554 27.5587 37.6278 27.1193 37.6278 26.608C37.6278 26.0966 37.5559 25.6534 37.4119 25.2784C37.268 24.8996 37.0597 24.6061 36.7869 24.3977C36.5142 24.1894 36.1828 24.0852 35.7926 24.0852C35.3949 24.0852 35.0597 24.1932 34.7869 24.4091C34.5142 24.6212 34.3078 24.9167 34.1676 25.2955C34.0275 25.6742 33.9574 26.1117 33.9574 26.608C33.9574 27.1117 34.0275 27.5473 34.1676 27.9148C34.3116 28.2784 34.518 28.5606 34.7869 28.7614C35.0597 28.9583 35.3949 29.0568 35.7926 29.0568ZM44.3551 25.9545V31H41.9347V22.2727H44.2415V23.8125H44.3438C44.5369 23.3049 44.8608 22.9034 45.3153 22.608C45.7699 22.3087 46.321 22.1591 46.9688 22.1591C47.5748 22.1591 48.1032 22.2917 48.554 22.5568C49.0047 22.822 49.3551 23.2008 49.6051 23.6932C49.8551 24.1818 49.9801 24.7652 49.9801 25.4432V31H47.5597V25.875C47.5634 25.3409 47.4271 24.9242 47.1506 24.625C46.8741 24.322 46.4934 24.1705 46.0085 24.1705C45.6828 24.1705 45.3949 24.2405 45.1449 24.3807C44.8987 24.5208 44.7055 24.7254 44.5653 24.9943C44.429 25.2595 44.3589 25.5795 44.3551 25.9545ZM61.1875 27.2841V22.2727H63.608V31H61.2841V29.4148H61.1932C60.9962 29.9261 60.6686 30.3371 60.2102 30.6477C59.7557 30.9583 59.2008 31.1136 58.5455 31.1136C57.9621 31.1136 57.4489 30.9811 57.0057 30.7159C56.5625 30.4508 56.2159 30.0739 55.9659 29.5852C55.7197 29.0966 55.5947 28.5114 55.5909 27.8295V22.2727H58.0114V27.3977C58.0152 27.9129 58.1534 28.3201 58.4261 28.6193C58.6989 28.9186 59.0644 29.0682 59.5227 29.0682C59.8144 29.0682 60.0871 29.0019 60.3409 28.8693C60.5947 28.733 60.7992 28.5322 60.9545 28.267C61.1136 28.0019 61.1913 27.6742 61.1875 27.2841ZM65.544 34.2727V22.2727H67.9304V23.7386H68.0384C68.1444 23.5038 68.2978 23.2652 68.4986 23.0227C68.7031 22.7765 68.9683 22.572 69.294 22.4091C69.6236 22.2424 70.0327 22.1591 70.5213 22.1591C71.1577 22.1591 71.7448 22.3258 72.2827 22.6591C72.8205 22.9886 73.2505 23.4867 73.5724 24.1534C73.8944 24.8163 74.0554 25.6477 74.0554 26.6477C74.0554 27.6212 73.8982 28.4432 73.5838 29.1136C73.2732 29.7803 72.849 30.286 72.3111 30.6307C71.777 30.9716 71.1785 31.142 70.5156 31.142C70.0459 31.142 69.6463 31.0644 69.3168 30.9091C68.991 30.7538 68.724 30.5587 68.5156 30.3239C68.3073 30.0852 68.1482 29.8447 68.0384 29.6023H67.9645V34.2727H65.544ZM67.9134 26.6364C67.9134 27.1553 67.9853 27.608 68.1293 27.9943C68.2732 28.3807 68.4815 28.6818 68.7543 28.8977C69.027 29.1098 69.3584 29.2159 69.7486 29.2159C70.1425 29.2159 70.4759 29.108 70.7486 28.892C71.0213 28.6723 71.2277 28.3693 71.3679 27.983C71.5118 27.5928 71.5838 27.1439 71.5838 26.6364C71.5838 26.1326 71.5137 25.6894 71.3736 25.3068C71.2334 24.9242 71.027 24.625 70.7543 24.4091C70.4815 24.1932 70.1463 24.0852 69.7486 24.0852C69.3546 24.0852 69.0213 24.1894 68.7486 24.3977C68.4796 24.6061 68.2732 24.9015 68.1293 25.2841C67.9853 25.6667 67.9134 26.1174 67.9134 26.6364Z" fill="white"/>
</svg>
