<svg width="32" height="32" viewBox="0 0 32 32" fill="none" xmlns="http://www.w3.org/2000/svg">
<mask id="mask0_69645_2435" style="mask-type:alpha" maskUnits="userSpaceOnUse" x="0" y="0" width="32" height="32">
<rect width="32" height="32" fill="#D9D9D9"/>
</mask>
<g mask="url(#mask0_69645_2435)">
<path d="M9.33301 28C8.59967 28 7.9719 27.7389 7.44967 27.2167C6.92745 26.6944 6.66634 26.0667 6.66634 25.3333V8H5.33301V5.33333H11.9997V4H19.9997V5.33333H26.6663V8H25.333V25.3333C25.333 26.0667 25.0719 26.6944 24.5497 27.2167C24.0275 27.7389 23.3997 28 22.6663 28H9.33301ZM22.6663 8H9.33301V25.3333H22.6663V8ZM11.9997 22.6667H14.6663V10.6667H11.9997V22.6667ZM17.333 22.6667H19.9997V10.6667H17.333V22.6667Z" fill="#2A3647"/>
</g>
</svg>
