<svg width="27" height="23" viewBox="0 0 27 23" fill="none" xmlns="http://www.w3.org/2000/svg">
<g id="Vector">
<path d="M20.9985 2.96561L20.9985 20.9656C20.998 21.4959 20.7871 22.0043 20.4122 22.3792C20.0372 22.7542 19.5288 22.9651 18.9985 22.9656L14.9985 22.9656C14.4683 22.9651 13.9599 22.7542 13.5849 22.3792C13.2099 22.0043 12.9991 21.4959 12.9985 20.9656L12.9985 2.96561C12.9991 2.43534 13.2099 1.92694 13.5849 1.55198C13.9599 1.17702 14.4683 0.966137 14.9985 0.965608L18.9985 0.965608C19.5288 0.966137 20.0372 1.17702 20.4122 1.55198C20.7871 1.92694 20.998 2.43534 20.9985 2.96561ZM14.9985 20.9656L18.9985 20.9656L18.9985 2.96561L14.9985 2.96561L14.9985 20.9656ZM14.9985 2.96561L14.9985 20.9656C14.998 21.4959 14.7871 22.0043 14.4122 22.3792C14.0372 22.7542 13.5288 22.9651 12.9985 22.9656L8.99854 22.9656C8.46826 22.9651 7.95986 22.7542 7.58491 22.3792C7.20995 22.0043 6.99906 21.4959 6.99854 20.9656L6.99853 2.96559C6.99906 2.43532 7.20995 1.92692 7.58491 1.55196C7.95986 1.177 8.46826 0.966119 8.99853 0.965589L12.9985 0.965589C13.5288 0.966118 14.0372 1.177 14.4122 1.55196C14.7871 1.92692 14.998 2.43534 14.9985 2.96561ZM8.99854 20.9656L12.9985 20.9656L12.9985 2.96561L8.99853 2.96559L8.99854 20.9656ZM8.99853 2.96559L8.99854 20.9656C8.99801 21.4959 8.78712 22.0043 8.41216 22.3792C8.03721 22.7542 7.52881 22.9651 6.99854 22.9656L2.99853 22.9656C2.46826 22.9651 1.95986 22.7542 1.58491 22.3792C1.20995 22.0043 0.999065 21.4959 0.998535 20.9656L0.998534 2.96559C0.999064 2.43532 1.20995 1.92692 1.58491 1.55196C1.95986 1.177 2.46826 0.966119 2.99853 0.965589L6.99853 0.965589C7.5288 0.966119 8.0372 1.177 8.41216 1.55196C8.78712 1.92692 8.998 2.43532 8.99853 2.96559ZM2.99853 20.9656L6.99854 20.9656L6.99853 2.96559L2.99853 2.96559L2.99853 20.9656Z" fill="#CDCDCD"/>
<path d="M26.9985 2.96583L26.9985 20.9658C26.998 21.4961 26.7871 22.0045 26.4122 22.3794C26.0372 22.7544 25.5288 22.9653 24.9985 22.9658L20.9985 22.9658C20.4683 22.9653 19.9599 22.7544 19.5849 22.3794C19.2099 22.0045 18.9991 21.4959 18.9985 20.9656L18.9985 2.96561C18.9991 2.43534 19.2099 1.92716 19.5849 1.5522C19.9599 1.17724 20.4683 0.96636 20.9985 0.965831L24.9985 0.965831C25.5288 0.96636 26.0372 1.17724 26.4122 1.5522C26.7871 1.92716 26.998 2.43556 26.9985 2.96583ZM20.9985 20.9656L24.9985 20.9658L24.9985 2.96583L20.9985 2.96561L20.9985 20.9656Z" fill="#CDCDCD"/>
</g>
</svg>
