<svg width="20" height="23" viewBox="0 0 20 23" fill="none" xmlns="http://www.w3.org/2000/svg">
<path id="Vector" d="M4.58187 20.7688H15.4152V20.4937C14.6569 19.8521 13.8173 19.371 12.8965 19.0506C11.9756 18.7294 11.0096 18.5688 9.99854 18.5688C8.98742 18.5688 8.02145 18.7294 7.10062 19.0506C6.17979 19.371 5.3402 19.8521 4.58187 20.4937V20.7688ZM2.4152 19.5037C3.3902 18.5321 4.52337 17.7665 5.8147 17.2069C7.10531 16.6481 8.49992 16.3688 9.99854 16.3688C11.4971 16.3688 12.8921 16.6481 14.1835 17.2069C15.4741 17.7665 16.6069 18.5321 17.5819 19.5037V5.36875H2.4152V19.5037ZM9.99854 14.1688C8.95131 14.1688 8.05756 13.7929 7.31729 13.0413C6.57701 12.2896 6.20687 11.3821 6.20687 10.3188C6.20687 9.25542 6.57701 8.34792 7.31729 7.59625C8.05756 6.84458 8.95131 6.46875 9.99854 6.46875C11.0458 6.46875 11.9395 6.84458 12.6798 7.59625C13.4201 8.34792 13.7902 9.25542 13.7902 10.3188C13.7902 11.3821 13.4201 12.2896 12.6798 13.0413C11.9395 13.7929 11.0458 14.1688 9.99854 14.1688ZM9.99854 11.9688C10.4499 11.9688 10.8334 11.8082 11.149 11.487C11.4654 11.1665 11.6235 10.7771 11.6235 10.3188C11.6235 9.86042 11.4654 9.47102 11.149 9.15055C10.8334 8.82935 10.4499 8.66875 9.99854 8.66875C9.54715 8.66875 9.16365 8.82935 8.84803 9.15055C8.5317 9.47102 8.37354 9.86042 8.37354 10.3188C8.37354 10.7771 8.5317 11.1665 8.84803 11.487C9.16365 11.8082 9.54715 11.9688 9.99854 11.9688ZM1.24854 22.9688C0.69625 22.9688 0.248535 22.521 0.248535 21.9688V4.16875C0.248535 3.61647 0.69625 3.16875 1.24854 3.16875H3.49854V1.96875C3.49854 1.41647 3.94625 0.96875 4.49854 0.96875H4.6652C5.21749 0.96875 5.6652 1.41647 5.6652 1.96875V3.16875H14.3319V1.96875C14.3319 1.41647 14.7796 0.96875 15.3319 0.96875H15.4985C16.0508 0.96875 16.4985 1.41647 16.4985 1.96875V3.16875H18.7485C19.3008 3.16875 19.7485 3.61647 19.7485 4.16875V21.9687C19.7485 22.521 19.3008 22.9688 18.7485 22.9688H1.24854Z" fill="#CDCDCD"/>
</svg>
