<svg width="28" height="28" viewBox="0 0 28 28" fill="none" xmlns="http://www.w3.org/2000/svg">
<g id="calendar-event-fill">
<path id="Vector" d="M19.8334 3.50008H24.3335C24.6429 3.50008 24.9397 3.623 25.1584 3.84179C25.3772 4.06058 25.5002 4.35733 25.5002 4.66675V23.3334C25.5002 23.6428 25.3772 23.9396 25.1584 24.1584C24.9397 24.3772 24.6429 24.5001 24.3335 24.5001H3.66667C3.35725 24.5001 3.0605 24.3772 2.84171 24.1584C2.62292 23.9396 2.5 23.6428 2.5 23.3334V4.66675C2.5 4.35733 2.62292 4.06058 2.84171 3.84179C3.0605 3.623 3.35725 3.50008 3.66667 3.50008H8.16674V2.16675C8.16674 1.61446 8.61446 1.16675 9.16674 1.16675H9.50008C10.0524 1.16675 10.5001 1.61446 10.5001 2.16675V3.50008H17.5001V2.16675C17.5001 1.61446 17.9478 1.16675 18.5001 1.16675H18.8334C19.3857 1.16675 19.8334 1.61446 19.8334 2.16675V3.50008ZM4.50016 10.0001V22.5001H23.5002V10.0001H4.50016ZM7.00005 16.1667C7.00006 15.6144 7.44778 15.1667 8.00005 15.1667H11.8334C12.3857 15.1667 12.8334 15.6145 12.8334 16.1667V17.5001C12.8334 18.0524 12.3857 18.5001 11.8334 18.5001H8.00002C7.44773 18.5001 7.00001 18.0524 7.00002 17.5001L7.00005 16.1667Z" fill="black"/>
</g>
</svg>
