<svg width="32" height="32" viewBox="0 0 32 32" fill="none" xmlns="http://www.w3.org/2000/svg">
<g id="delete">
<mask id="mask0_66768_3508" style="mask-type:alpha" maskUnits="userSpaceOnUse" x="0" y="0" width="32" height="32">
<rect id="Bounding box" width="32" height="32" fill="#D9D9D9"/>
</mask>
<g mask="url(#mask0_66768_3508)">
<path id="delete_2" d="M9.33289 28C8.59955 28 7.97177 27.7389 7.44955 27.2167C6.92733 26.6944 6.66622 26.0667 6.66622 25.3333V8H5.33289V5.33333H11.9996V4H19.9996V5.33333H26.6662V8H25.3329V25.3333C25.3329 26.0667 25.0718 26.6944 24.5496 27.2167C24.0273 27.7389 23.3996 28 22.6662 28H9.33289ZM22.6662 8H9.33289V25.3333H22.6662V8ZM11.9996 22.6667H14.6662V10.6667H11.9996V22.6667ZM17.3329 22.6667H19.9996V10.6667H17.3329V22.6667Z" fill="#2A3647"/>
</g>
</g>
</svg>
